<?xml version="1.0" encoding="utf-8"?>
<!-- Generator: Adobe Illustrator 23.0.1, SVG Export Plug-In . SVG Version: 6.00 Build 0)  -->
<svg version="1.1" id="Layer_1" xmlns="http://www.w3.org/2000/svg" xmlns:xlink="http://www.w3.org/1999/xlink" x="0px" y="0px"
	 viewBox="0 0 1000 1000" style="enable-background:new 0 0 1000 1000;" xml:space="preserve">
<style type="text/css">
	.st0{fill:#1A1A1A;}
	.st1{fill:url(#SVGID_1_);}
	.st2{fill:url(#SVGID_2_);}
	.st3{fill:url(#SVGID_3_);}
</style>
<g>
	<path class="st0" d="M368.8,417.3h78.5c53.7,1,66.1,46.5,66.1,86.8c0,85.8-44.4,84.7-66.1,84.7h-78.5V417.3L368.8,417.3z
		 M444.2,557.9c27.9,0,34.1-25.8,34.1-53.7c0-39.3-13.4-54.8-34.1-54.8h-40.3v108.5H444.2z"/>
	<path class="st0" d="M580.6,418.4h40.3l58.9,171.6h-37.2l-14.5-39.3h-59.9l-15.5,39.3h-37.2L580.6,418.4z M619.9,520.7l-19.6-57.9
		l-21.7,57.9H619.9L619.9,520.7z"/>
	<path class="st0" d="M695.3,462.8c0-25.8,10.3-45.5,44.4-45.5c15.5,0,61,2.1,82.7,6.2v25.8c0,0-46.5-2.1-77.5-2.1
		c-11.4,0-15.5,7.2-15.5,15.5v12.4c0,13.4,6.2,13.4,15.5,13.4h44.4c30,0,41.3,19.6,41.3,43.4v16.5c0,35.1-20.7,42.4-41.3,42.4
		c-14.5,0-76.5-2.1-87.8-7.2v-24.8c0,0,50.6,1,80.6,1c10.3,0,13.4-12.4,13.4-12.4V532c0-8.3-3.1-12.4-13.4-12.4h-43.4
		c-31,0-43.4-14.5-43.4-43.4L695.3,462.8L695.3,462.8z"/>
	<path class="st0" d="M856.5,418.4h34.1v72.3h18.6l49.6-72.3h40.3l-58.9,86.8l58.9,84.7h-40.3l-49.6-69.2h-18.6v69.2h-34.1V418.4
		L856.5,418.4z"/>
	
		<linearGradient id="SVGID_1_" gradientUnits="userSpaceOnUse" x1="295.3744" y1="1423.6284" x2="486.2087" y2="1423.6284" gradientTransform="matrix(0.9905 0.1376 -0.1376 0.9905 29.7268 -961.0847)">
		<stop  offset="1.000000e-02" style="stop-color:#C8432F"/>
		<stop  offset="0.37" style="stop-color:#D46E43"/>
		<stop  offset="1" style="stop-color:#EEB576"/>
	</linearGradient>
	<path class="st1" d="M321.2,470c0-3.1,0-5.2,1-8.3c3.1-45.5-6.2-90.9-26.9-132.3l-14.5-30l-7.2,33.1
		c-16.5,76.5-68.2,139.5-139.5,169.5l-10.3,4.1l4.1,10.3c12.4,33.1,17.6,69.2,13.4,105.4c-2.1,19.6-6.2,38.2-12.4,55.8l-8.3,22.7
		l22.7-7.2C241.6,660.2,311.9,573.4,321.2,470z M170.3,657.1l-12.4,6.2l3.1-13.4c2.1-8.3,3.1-17.6,4.1-25.8
		c3.1-33.1,0-67.2-10.3-99.2l-2.1-5.2l5.2-2.1c54.8-26.9,98.2-72.3,121.9-128.1l7.2-17.6l4.1,18.6c6.2,25.8,8.3,52.7,6.2,79.6
		C290.2,548.6,242.7,619.9,170.3,657.1z"/>
	
		<linearGradient id="SVGID_2_" gradientUnits="userSpaceOnUse" x1="354.5685" y1="1419.4335" x2="440.4783" y2="1419.4335" gradientTransform="matrix(0.9905 0.1376 -0.1376 0.9905 29.7268 -961.0847)">
		<stop  offset="0.21" style="stop-color:#CF613B"/>
		<stop  offset="1" style="stop-color:#EEB576"/>
	</linearGradient>
	<path class="st2" d="M266.4,483.5c9.3-19.6,18.6-69.2,17.6-72.3c-9.3,17.6-19.6,34.1-33.1,48.6c-2.1,5.2-4.1,9.3-6.2,14.5l0,0
		c-15.5,34.1-39.3,64.1-68.2,87.8c1,9.3,2.1,17.6,2.1,26.9C216.8,562,246.8,525.8,266.4,483.5z"/>
	
		<linearGradient id="SVGID_3_" gradientUnits="userSpaceOnUse" x1="192.5098" y1="1429.1895" x2="403.45" y2="1429.1895" gradientTransform="matrix(0.9905 0.1376 -0.1376 0.9905 29.7268 -961.0847)">
		<stop  offset="0.21" style="stop-color:#CF613B"/>
		<stop  offset="1" style="stop-color:#EEB576"/>
	</linearGradient>
	<path class="st3" d="M129,589.9c-21.7,10.3-43.4,16.5-67.2,19.6l-13.4,2.1l6.2-11.4c4.1-7.2,8.3-15.5,12.4-23.8
		c14.5-31,21.7-64.1,22.7-97.1v-5.2l5.2-1c42.4-6.2,82.7-21.7,117.8-46.5c17.6-21.7,32-46.5,40.3-72.3
		c-41.3,56.8-105.4,93-175.7,98.2l-11.4,1v11.4c1,36.2-6.2,71.3-20.7,103.3c-8.3,17.6-17.6,34.1-30,49.6L0.8,636.4h23.8
		c35.1,0,70.3-6.2,103.3-19.6C130,607.5,130,599.2,129,589.9z"/>
</g>
</svg>
